<svg width="300" height="300" viewBox="0 0 300 300" fill="none" xmlns="http://www.w3.org/2000/svg">
<path d="M149.995 0C67.156 0 0 67.159 0 149.998C0 232.837 67.156 299.995 149.995 299.995C232.834 299.995 299.998 232.834 299.998 149.998C299.997 67.156 232.834 0 149.995 0ZM217.205 217.203C217.205 227.269 209.046 235.428 198.982 235.428H101.015C90.947 235.428 82.79 227.269 82.79 217.203V82.789C82.79 72.723 90.949 64.564 101.015 64.564H177.907V101.014H217.205V217.203ZM185.688 93.231V64.562L217.205 93.231H185.688Z" fill="#C4C4C4"/>
</svg>
