<svg width="548" height="534" viewBox="0 0 548 534" fill="none" xmlns="http://www.w3.org/2000/svg">
<path d="M183.458 429.773C183.458 431.979 180.922 433.743 177.723 433.743C174.084 434.074 171.548 432.309 171.548 429.773C171.548 427.567 174.084 425.803 177.282 425.803C180.591 425.472 183.458 427.236 183.458 429.773ZM149.16 424.81C148.388 427.016 150.594 429.552 153.902 430.214C156.77 431.317 160.078 430.214 160.74 428.008C161.402 425.803 159.306 423.266 155.998 422.274C153.131 421.502 149.932 422.605 149.16 424.81ZM197.905 422.935C194.707 423.707 192.501 425.803 192.832 428.339C193.163 430.545 196.03 431.979 199.339 431.207C202.537 430.435 204.743 428.339 204.412 426.134C204.081 424.038 201.103 422.605 197.905 422.935ZM270.471 0.333313C117.509 0.333313 0.499695 116.461 0.499695 269.422C0.499695 391.726 77.4768 496.383 187.428 533.218C201.544 535.754 206.507 527.042 206.507 519.874C206.507 513.036 206.176 475.32 206.176 452.16C206.176 452.16 128.979 468.703 112.767 419.296C112.767 419.296 100.195 387.204 82.1087 378.933C82.1087 378.933 56.854 361.618 83.8732 361.949C83.8732 361.949 111.333 364.155 126.442 390.402C150.594 432.971 191.068 420.73 206.838 413.451C209.375 395.806 216.543 383.565 224.483 376.286C162.835 369.448 100.636 360.516 100.636 254.424C100.636 224.096 109.018 208.877 126.663 189.468C123.795 182.299 114.421 152.744 129.53 114.586C152.579 107.418 205.625 144.362 205.625 144.362C227.681 138.186 251.392 134.988 274.882 134.988C298.372 134.988 322.083 138.186 344.14 144.362C344.14 144.362 397.185 107.307 420.234 114.586C435.343 152.854 425.969 182.299 423.102 189.468C440.747 208.988 451.555 224.207 451.555 254.424C451.555 360.846 386.598 369.338 324.95 376.286C335.096 384.998 343.698 401.541 343.698 427.457C343.698 464.622 343.368 510.61 343.368 519.653C343.368 526.821 348.441 535.534 362.446 532.997C472.729 496.383 547.5 391.726 547.5 269.422C547.5 116.461 423.433 0.333313 270.471 0.333313ZM107.694 380.697C106.26 381.8 106.591 384.337 108.466 386.432C110.231 388.196 112.767 388.968 114.201 387.535C115.635 386.432 115.304 383.895 113.429 381.8C111.664 380.036 109.128 379.264 107.694 380.697ZM95.7837 371.764C95.0117 373.198 96.1145 374.963 98.3202 376.065C100.085 377.168 102.29 376.837 103.062 375.293C103.834 373.86 102.731 372.095 100.526 370.992C98.3202 370.331 96.5557 370.662 95.7837 371.764ZM131.515 411.025C129.751 412.459 130.412 415.767 132.949 417.862C135.485 420.399 138.684 420.73 140.117 418.965C141.551 417.532 140.889 414.223 138.684 412.128C136.257 409.591 132.949 409.26 131.515 411.025ZM118.943 394.813C117.178 395.916 117.178 398.784 118.943 401.32C120.707 403.857 123.685 404.959 125.119 403.857C126.883 402.423 126.883 399.556 125.119 397.019C123.575 394.483 120.707 393.38 118.943 394.813Z" fill="#BBBBBB"/>
</svg>
