<svg width="522" height="522" viewBox="0 0 522 522" fill="none" xmlns="http://www.w3.org/2000/svg">
<rect width="522" height="522" fill="#E5E5E5"/>
<path d="M444.19 444.194H366.95V323.194C366.95 294.344 366.43 257.194 326.77 257.194C286.54 257.194 280.38 288.624 280.38 321.074V444.184H203.14V195.424H277.29V229.424H278.29C285.712 216.735 296.437 206.297 309.322 199.222C322.207 192.146 336.77 188.698 351.46 189.244C429.75 189.244 444.19 240.744 444.19 307.734V444.194ZM115.98 161.414C107.113 161.416 98.4446 158.788 91.0711 153.864C83.6975 148.939 77.95 141.938 74.5554 133.747C71.1607 125.555 70.2715 116.541 72.0002 107.844C73.7288 99.1473 77.9977 91.1584 84.2669 84.8878C90.5361 78.6172 98.524 74.3466 107.22 72.616C115.917 70.8854 124.931 71.7726 133.123 75.1654C141.316 78.5582 148.318 84.3041 153.244 91.6766C158.171 99.0491 160.8 107.717 160.8 116.584C160.8 128.472 156.078 139.873 147.673 148.28C139.268 156.687 127.868 161.411 115.98 161.414V161.414ZM154.6 444.184H77.28V195.424H154.61L154.6 444.184ZM482.66 0.0338844H38.46C33.463 -0.0268561 28.5031 0.898633 23.8643 2.75736C19.2255 4.6161 14.9988 7.37157 11.4264 10.866C7.8539 14.3604 5.00579 18.5252 3.04509 23.1219C1.08439 27.7185 0.0496044 32.6568 0 37.6539V483.654C0.118691 493.742 4.23698 503.371 11.4502 510.425C18.6634 517.478 28.3816 521.381 38.47 521.274H482.66C492.775 521.41 502.53 517.523 509.78 510.469C517.029 503.414 521.18 493.769 521.32 483.654V37.5739C521.175 27.4653 517.021 17.8281 509.771 10.7824C502.521 3.73677 492.769 -0.140363 482.66 0.00388565" fill="#BBBBBB"/>
</svg>
