<svg width="390" height="490" viewBox="0 0 390 490" fill="none" xmlns="http://www.w3.org/2000/svg">
<path d="M380 100H290V10L380 100Z" fill="#C4C4C4"/>
<path d="M389.976 100C389.975 97.398 388.983 94.841 387.071 92.929L297.071 2.929C295.158 1.017 292.601 0.025 290 0.024V0H10C4.477 0 0 4.477 0 10V480C0 485.523 4.477 490 10 490H380C385.523 490 390 485.523 390 480V100H389.976ZM300 34.142L355.858 90H300V34.142ZM20 470V20H280V100C280 105.523 284.477 110 290 110H370V470H20Z" fill="#C4C4C4"/>
<path d="M340 160H80V180H340V160Z" fill="#C4C4C4"/>
<path d="M340 220H50V240H340V220Z" fill="#C4C4C4"/>
<path d="M340 280H50V300H340V280Z" fill="#C4C4C4"/>
<path d="M340 340H50V360H340V340Z" fill="#C4C4C4"/>
<path d="M280 400H50V420H280V400Z" fill="#C4C4C4"/>
<path d="M340 400H305V420H340V400Z" fill="#C4C4C4"/>
<path d="M110 45H50V65H110V45Z" fill="#C4C4C4"/>
<path d="M170 80H50V100H170V80Z" fill="#C4C4C4"/>
</svg>
